<svg width="151" height="51" viewBox="0 0 151 51" fill="none" xmlns="http://www.w3.org/2000/svg">
<path d="M62.0742 21.4688V5.4375H57.0586V5.32031L58.0078 3.30469H69.4336V3.42188L68.4844 5.4375H64.418V20.4141L62.1914 21.4688H62.0742ZM72.0398 5.51953C71.7664 5.23828 71.6297 4.90234 71.6297 4.51172C71.6297 4.11328 71.7664 3.77344 72.0398 3.49219C72.3133 3.21094 72.6453 3.07031 73.0359 3.07031C73.4266 3.07031 73.7586 3.21094 74.032 3.49219C74.3055 3.77344 74.4422 4.11328 74.4422 4.51172C74.4422 4.90234 74.3055 5.23828 74.032 5.51953C73.7586 5.80078 73.4266 5.94141 73.0359 5.94141C72.6453 5.94141 72.3133 5.80078 72.0398 5.51953ZM71.8641 21.4688V8.69531L74.0906 7.64062H74.2078V20.4141L71.9812 21.4688H71.8641ZM80.0953 21.4688V3.89062L82.3219 2.83594H82.4391V20.4141L80.2125 21.4688H80.0953ZM88.5023 5.51953C88.2289 5.23828 88.0922 4.90234 88.0922 4.51172C88.0922 4.11328 88.2289 3.77344 88.5023 3.49219C88.7758 3.21094 89.1078 3.07031 89.4984 3.07031C89.8891 3.07031 90.2211 3.21094 90.4945 3.49219C90.768 3.77344 90.9047 4.11328 90.9047 4.51172C90.9047 4.90234 90.768 5.23828 90.4945 5.51953C90.2211 5.80078 89.8891 5.94141 89.4984 5.94141C89.1078 5.94141 88.7758 5.80078 88.5023 5.51953ZM88.3266 21.4688V8.69531L90.5531 7.64062H90.6703V20.4141L88.4438 21.4688H88.3266ZM95.9719 21.4688V10.7461C95.9719 9.69922 96.7023 8.89453 98.1633 8.33203C98.9523 8.02734 99.843 7.875 100.835 7.875C101.827 7.875 102.718 8.02734 103.507 8.33203C104.968 8.89453 105.698 9.69922 105.698 10.7461V20.4141L103.472 21.4688H103.355V11.1562C103.355 10.7656 103.109 10.4727 102.616 10.2773C102.132 10.082 101.538 9.98438 100.835 9.98438C100.132 9.98438 99.5344 10.082 99.0422 10.2773C98.5578 10.4727 98.3156 10.7656 98.3156 11.1562V20.4141L96.0891 21.4688H95.9719ZM110.414 18.3633V10.7461C110.414 9.69922 111.145 8.89453 112.605 8.33203C113.395 8.02734 114.285 7.875 115.277 7.875C116.27 7.875 117.16 8.02734 117.949 8.33203C119.41 8.91016 120.141 9.71484 120.141 10.7461V23.168C120.141 24.2148 119.41 25.0195 117.949 25.582C117.16 25.8867 116.27 26.0391 115.277 26.0391H111.633V25.9219L112.57 23.9297H115.277C115.98 23.9297 116.574 23.832 117.059 23.6367C117.551 23.4414 117.797 23.1484 117.797 22.7578V20.8359C117.047 21.1016 116.207 21.2344 115.277 21.2344C114.285 21.2344 113.395 21.082 112.605 20.7773C111.145 20.1992 110.414 19.3945 110.414 18.3633ZM112.758 17.9531C112.758 18.3438 113 18.6367 113.484 18.832C113.977 19.0273 114.574 19.125 115.277 19.125C115.988 19.125 116.586 19.0273 117.07 18.832C117.555 18.6367 117.797 18.3438 117.797 17.9531V11.1562C117.797 10.7656 117.551 10.4727 117.059 10.2773C116.574 10.082 115.98 9.98438 115.277 9.98438C114.574 9.98438 113.977 10.082 113.484 10.2773C113 10.4727 112.758 10.7656 112.758 11.1562V17.9531ZM58.875 40.6094L61.1016 39.5547H61.2188V42.3672C61.2188 42.9062 61.6914 43.3633 62.6367 43.7383C63.293 43.9961 64.0117 44.125 64.793 44.125C65.5742 44.125 66.293 43.9961 66.9492 43.7383C67.8945 43.3633 68.3672 42.9062 68.3672 42.3672V38.957C68.3672 38.4102 67.8945 37.9531 66.9492 37.5859C66.293 37.3281 65.5742 37.1992 64.793 37.1992C63.8008 37.1992 62.9102 37.0469 62.1211 36.7422C60.6602 36.1641 59.9297 35.3594 59.9297 34.3281V30.9414C59.9297 29.8945 60.6602 29.0898 62.1211 28.5273C62.9102 28.2227 63.8008 28.0703 64.793 28.0703C65.7852 28.0703 66.6758 28.2227 67.4648 28.5273C68.9258 29.1055 69.6562 29.9102 69.6562 30.9414V32.4414L67.4297 33.4961H67.3125V31.3516C67.3125 30.9609 67.0664 30.668 66.5742 30.4727C66.0898 30.2773 65.4961 30.1797 64.793 30.1797C64.0898 30.1797 63.4922 30.2773 63 30.4727C62.5156 30.668 62.2734 30.9609 62.2734 31.3516V33.918C62.2734 34.3086 62.5156 34.6016 63 34.7969C63.4922 34.9922 64.0898 35.0898 64.793 35.0898C65.9727 35.0898 67.0586 35.2969 68.0508 35.7109C69.8242 36.4453 70.7109 37.5273 70.7109 38.957V42.3672C70.7109 43.7891 69.8242 44.8711 68.0508 45.6133C67.0586 46.0273 65.9727 46.2344 64.793 46.2344C63.6133 46.2344 62.5273 46.0273 61.5352 45.6133C59.7617 44.8789 58.875 43.7969 58.875 42.3672V40.6094ZM85.2703 40.8086V43.3633C85.2703 44.3945 84.5398 45.1992 83.0789 45.7773C82.2898 46.082 81.3992 46.2344 80.407 46.2344C79.4148 46.2344 78.5242 46.082 77.7352 45.7773C76.2742 45.1992 75.5438 44.3945 75.5438 43.3633V35.7461C75.5438 34.7148 76.2742 33.9102 77.7352 33.332C78.5242 33.0273 79.4148 32.875 80.407 32.875C81.3992 32.875 82.2898 33.0273 83.0789 33.332C84.5398 33.9102 85.2703 34.7148 85.2703 35.7461V37.2461L77.8875 42.9531C77.8875 43.3438 78.1297 43.6367 78.6141 43.832C79.1063 44.0273 79.7039 44.125 80.407 44.125C81.1102 44.125 81.7039 44.0273 82.1883 43.832C82.6805 43.6367 82.9266 43.3438 82.9266 42.9531V41.8633L85.1531 40.8086H85.2703ZM77.8875 40.4805L82.9266 36.4258V36.1562C82.9266 35.7656 82.6805 35.4727 82.1883 35.2773C81.7039 35.082 81.1102 34.9844 80.407 34.9844C79.7039 34.9844 79.1063 35.082 78.6141 35.2773C78.1297 35.4727 77.8875 35.7656 77.8875 36.1562V40.4805ZM89.9859 46.4688V35.7461C89.9859 34.6992 90.7164 33.8945 92.1773 33.332C92.9664 33.0273 93.857 32.875 94.8492 32.875H96.4312V32.9922L95.4937 34.9844H94.8492C94.1461 34.9844 93.5484 35.082 93.0562 35.2773C92.5719 35.4727 92.3297 35.7656 92.3297 36.1562V45.4141L90.1031 46.4688H89.9859ZM102.389 46.4688L97.8656 33.6016L99.893 32.6406H100.01L103.327 42.4141L106.573 32.6406H106.69L108.717 33.6016L104.534 45.5078L102.506 46.4688H102.389ZM112.437 30.5195C112.163 30.2383 112.027 29.9023 112.027 29.5117C112.027 29.1133 112.163 28.7734 112.437 28.4922C112.71 28.2109 113.042 28.0703 113.433 28.0703C113.823 28.0703 114.155 28.2109 114.429 28.4922C114.702 28.7734 114.839 29.1133 114.839 29.5117C114.839 29.9023 114.702 30.2383 114.429 30.5195C114.155 30.8008 113.823 30.9414 113.433 30.9414C113.042 30.9414 112.71 30.8008 112.437 30.5195ZM112.261 46.4688V33.6953L114.487 32.6406H114.605V45.4141L112.378 46.4688H112.261ZM129.633 40.8086V43.3633C129.633 44.3945 128.902 45.1992 127.441 45.7773C126.652 46.082 125.762 46.2344 124.77 46.2344C123.777 46.2344 122.887 46.082 122.098 45.7773C120.637 45.1992 119.906 44.3945 119.906 43.3633V35.7461C119.906 34.7148 120.637 33.9102 122.098 33.332C122.887 33.0273 123.777 32.875 124.77 32.875C125.762 32.875 126.652 33.0273 127.441 33.332C128.902 33.9102 129.633 34.7148 129.633 35.7461V37.2461L127.406 38.3008H127.289V36.1562C127.289 35.7656 127.043 35.4727 126.551 35.2773C126.066 35.082 125.473 34.9844 124.77 34.9844C124.066 34.9844 123.469 35.082 122.977 35.2773C122.492 35.4727 122.25 35.7656 122.25 36.1562V42.9531C122.25 43.3438 122.492 43.6367 122.977 43.832C123.469 44.0273 124.066 44.125 124.77 44.125C125.473 44.125 126.066 44.0273 126.551 43.832C127.043 43.6367 127.289 43.3438 127.289 42.9531V41.8633L129.516 40.8086H129.633ZM144.075 40.8086V43.3633C144.075 44.3945 143.345 45.1992 141.884 45.7773C141.095 46.082 140.204 46.2344 139.212 46.2344C138.22 46.2344 137.329 46.082 136.54 45.7773C135.079 45.1992 134.348 44.3945 134.348 43.3633V35.7461C134.348 34.7148 135.079 33.9102 136.54 33.332C137.329 33.0273 138.22 32.875 139.212 32.875C140.204 32.875 141.095 33.0273 141.884 33.332C143.345 33.9102 144.075 34.7148 144.075 35.7461V37.2461L136.692 42.9531C136.692 43.3438 136.934 43.6367 137.419 43.832C137.911 44.0273 138.509 44.125 139.212 44.125C139.915 44.125 140.509 44.0273 140.993 43.832C141.485 43.6367 141.731 43.3438 141.731 42.9531V41.8633L143.958 40.8086H144.075ZM136.692 40.4805L141.731 36.4258V36.1562C141.731 35.7656 141.485 35.4727 140.993 35.2773C140.509 35.082 139.915 34.9844 139.212 34.9844C138.509 34.9844 137.911 35.082 137.419 35.2773C136.934 35.4727 136.692 35.7656 136.692 36.1562V40.4805Z" fill="white"/>
<rect width="24" height="24" fill="#B86300"/>
<path d="M0 27H24V51H0V27Z" fill="#D7821E"/>
<rect x="28" width="24" height="24" fill="#D7821E"/>
<rect x="28" y="27" width="24" height="24" fill="#B86300"/>
</svg>
